<svg width="100" height="100" viewBox="0 0 100 100" fill="none" xmlns="http://www.w3.org/2000/svg">
<path d="M70.834 41.6663H79.1673C87.5006 41.6663 91.6673 37.4997 91.6673 29.1663V20.833C91.6673 12.4997 87.5006 8.33301 79.1673 8.33301H70.834C62.5007 8.33301 58.334 12.4997 58.334 20.833V29.1663C58.334 37.4997 62.5007 41.6663 70.834 41.6663Z" stroke="#EB7B7B" stroke-width="2" stroke-miterlimit="10" stroke-linecap="round" stroke-linejoin="round"/>
<path d="M20.834 91.6663H29.1673C37.5007 91.6663 41.6673 87.4997 41.6673 79.1663V70.833C41.6673 62.4997 37.5007 58.333 29.1673 58.333H20.834C12.5007 58.333 8.33398 62.4997 8.33398 70.833V79.1663C8.33398 87.4997 12.5007 91.6663 20.834 91.6663Z" stroke="#EB7B7B" stroke-width="2" stroke-miterlimit="10" stroke-linecap="round" stroke-linejoin="round"/>
<path d="M25.0007 41.6663C34.2054 41.6663 41.6673 34.2044 41.6673 24.9997C41.6673 15.7949 34.2054 8.33301 25.0007 8.33301C15.7959 8.33301 8.33398 15.7949 8.33398 24.9997C8.33398 34.2044 15.7959 41.6663 25.0007 41.6663Z" stroke="#EB7B7B" stroke-width="2" stroke-miterlimit="10" stroke-linecap="round" stroke-linejoin="round"/>
<path d="M75.0007 91.6663C84.2054 91.6663 91.6673 84.2044 91.6673 74.9997C91.6673 65.7949 84.2054 58.333 75.0007 58.333C65.7959 58.333 58.334 65.7949 58.334 74.9997C58.334 84.2044 65.7959 91.6663 75.0007 91.6663Z" stroke="#EB7B7B" stroke-width="2" stroke-miterlimit="10" stroke-linecap="round" stroke-linejoin="round"/>
</svg>
