<svg width="217" height="217" viewBox="0 0 217 217" fill="none" xmlns="http://www.w3.org/2000/svg">
<g clip-path="url(#clip0_352_6177)">
<circle cx="103.036" cy="106.426" r="103.036" transform="rotate(-78 103.036 106.426)" fill="url(#paint0_linear_352_6177)"/>
<circle cx="103.035" cy="106.426" r="80.1389" fill="#E8DEFF"/>
<path d="M89.029 103.448H32.6552C31.1888 103.448 30 102.26 30 100.793V24.6552C30 23.1888 31.1888 22 32.6552 22H76.6726L91.6842 35.8569V100.793C91.6842 102.26 90.4955 103.448 89.029 103.448Z" fill="#F5F8FF" stroke="#9F85F3" stroke-width="2"/>
<path fill-rule="evenodd" clip-rule="evenodd" d="M36.7852 39.0238C36.7852 38.0145 37.6034 37.1963 38.6127 37.1963H73.9995C75.0089 37.1963 75.8271 38.0145 75.8271 39.0238C75.8271 40.0332 75.0089 40.8514 73.9995 40.8514H38.6127C37.6034 40.8514 36.7852 40.0332 36.7852 39.0238ZM36.7852 50.2887C36.7852 49.2794 37.6034 48.4612 38.6127 48.4612H84.2731C85.2825 48.4612 86.1007 49.2794 86.1007 50.2887C86.1007 51.2981 85.2825 52.1163 84.2731 52.1163H38.6127C37.6034 52.1163 36.7852 51.2981 36.7852 50.2887ZM36.7852 61.5536C36.7852 60.5443 37.6034 59.726 38.6127 59.726H51.1693C52.1787 59.726 52.9969 60.5443 52.9969 61.5536C52.9969 62.563 52.1787 63.3812 51.1693 63.3812H38.6127C37.6034 63.3812 36.7852 62.563 36.7852 61.5536ZM57.3323 61.5536C57.3323 60.5443 58.1506 59.726 59.1599 59.726H84.2731C85.2825 59.726 86.1007 60.5443 86.1007 61.5536C86.1007 62.563 85.2825 63.3812 84.2731 63.3812H59.1599C58.1506 63.3812 57.3323 62.563 57.3323 61.5536ZM36.7852 72.8185C36.7852 71.8092 37.6034 70.9909 38.6127 70.9909H71.7165C72.7259 70.9909 73.5441 71.8092 73.5441 72.8185C73.5441 73.8279 72.7259 74.6461 71.7165 74.6461H38.6127C37.6034 74.6461 36.7852 73.8279 36.7852 72.8185ZM77.8795 72.8185C77.8795 71.8092 78.6977 70.9909 79.7071 70.9909H84.2731C85.2825 70.9909 86.1007 71.8092 86.1007 72.8185C86.1007 73.8279 85.2825 74.6461 84.2731 74.6461H79.7071C78.6977 74.6461 77.8795 73.8279 77.8795 72.8185ZM36.7852 82.9569C36.7852 81.9476 37.6034 81.1294 38.6127 81.1294H80.8486C81.8579 81.1294 82.6762 81.9476 82.6762 82.9569C82.6762 83.9663 81.8579 84.7845 80.8486 84.7845H38.6127C37.6034 84.7845 36.7852 83.9663 36.7852 82.9569ZM36.7852 93.0953C36.7852 92.086 37.6034 91.2678 38.6127 91.2678H69.4335C70.4428 91.2678 71.2611 92.086 71.2611 93.0953C71.2611 94.1047 70.4428 94.9229 69.4335 94.9229H38.6127C37.6034 94.9229 36.7852 94.1047 36.7852 93.0953Z" fill="#E8DEFF" stroke="#9F85F3" stroke-width="3.65517" stroke-linecap="round"/>
<path d="M36.7852 39.0238C36.7852 38.0145 37.6034 37.1962 38.6127 37.1962H73.9995C75.0089 37.1962 75.8271 38.0145 75.8271 39.0238C75.8271 40.0332 75.0089 40.8514 73.9995 40.8514H38.6127C37.6034 40.8514 36.7852 40.0332 36.7852 39.0238Z" fill="#7F65D1" stroke="#9F85F3" stroke-width="3.65517" stroke-linecap="round"/>
<path d="M77.5635 31.4191V22.142L91.4053 34.9191H81.0635C79.1305 34.9191 77.5635 33.3521 77.5635 31.4191Z" fill="#E8DEFF" stroke="#9F85F3"/>
<rect width="24.9705" height="4.30527" rx="2.15263" transform="matrix(-0.707107 0.707107 0.707107 0.707107 34.6104 38.9923)" fill="#7F65D1"/>
<rect width="24.9705" height="4.30527" rx="2.15263" transform="matrix(0.707107 0.707107 0.707107 -0.707107 16.9531 42.0365)" fill="#7F65D1"/>
<circle cx="197.687" cy="121.398" r="6.11628" fill="#7F65D1" stroke="#7F65D1" stroke-width="4"/>
<circle cx="17.1397" cy="134.116" r="1.88193" fill="#7F65D1" stroke="#9F85F3" stroke-width="3"/>
<path d="M141.965 152.203L152.053 142.115L193.623 177.596C198.715 181.941 199.021 189.704 194.288 194.438C189.555 199.171 181.792 198.864 177.446 193.773L141.965 152.203Z" fill="#7F65D1"/>
<path d="M149.128 160.594L177.447 193.773C181.792 198.864 189.555 199.171 194.288 194.438C199.022 189.704 198.715 181.941 193.624 177.596L156.587 145.984C155.096 151.357 152.531 156.304 149.128 160.594Z" fill="#9F85F3"/>
<path d="M130.446 91.6665L104.372 152.203C103.97 151.892 103.572 151.571 103.181 151.245C100.661 149.114 98.4665 146.61 96.6699 143.816L119.192 91.5259C122.924 90.9116 126.731 90.9591 130.446 91.6665Z" fill="white"/>
<path d="M148.982 102.169L124.466 159.085C119.374 159.091 114.349 157.899 109.779 155.602L136.549 93.4489C141.291 95.3449 145.545 98.3281 148.982 102.169Z" fill="white"/>
<path fill-rule="evenodd" clip-rule="evenodd" d="M109.563 100.034C104.815 103.124 101.055 107.594 98.7729 112.892C96.4903 118.191 95.7941 124.07 96.7773 129.78C97.7605 135.49 100.376 140.76 104.277 144.929C108.177 149.097 113.186 151.975 118.663 153.219C124.14 154.462 129.854 154.018 135.088 151.939L135.089 151.939C138.566 150.558 141.75 148.488 144.456 145.842C147.162 143.196 149.337 140.024 150.853 136.507C152.368 132.989 153.192 129.196 153.275 125.347C153.358 121.497 152.698 117.671 151.335 114.087L151.335 114.086C149.283 108.689 145.718 104.051 141.107 100.748C136.496 97.4465 131.044 95.6239 125.438 95.4974C119.833 95.3708 114.309 96.9455 109.563 100.034ZM90.0004 109.114C93.0178 102.109 98.0068 96.1589 104.352 92.0289C110.699 87.8981 118.112 85.7778 125.654 85.948C133.195 86.1183 140.508 88.571 146.668 92.9826C152.827 97.3933 157.552 103.56 160.264 110.692C162.065 115.429 162.934 120.478 162.825 125.553C162.715 130.628 161.629 135.634 159.625 140.285C157.621 144.937 154.738 149.147 151.134 152.671C147.53 156.195 143.276 158.965 138.614 160.816C131.59 163.605 123.91 164.204 116.549 162.534C109.189 160.863 102.493 157.002 97.3031 151.456C92.1139 145.911 88.6605 138.93 87.3641 131.401C86.0677 123.872 86.9834 116.118 90.0004 109.114Z" fill="#9F85F3"/>
<path d="M189.894 177.927L159.944 153.402C159.016 152.642 157.934 153.711 158.686 154.646L182.871 184.726C183.804 185.887 185.152 186.641 186.555 186.788L187.385 186.875C190.253 187.174 192.411 184.908 191.988 182.04L191.89 181.373C191.696 180.058 190.974 178.811 189.894 177.927Z" fill="#E8DEFF"/>
<rect width="38.8541" height="6.69898" rx="3.34949" transform="matrix(-0.707107 0.707107 0.707107 0.707107 135.974 108.5)" fill="#9F85F3"/>
<rect width="38.8541" height="6.69898" rx="3.34949" transform="matrix(0.707107 0.707107 0.707107 -0.707107 108.5 113.237)" fill="#9F85F3"/>
<rect width="21.7006" height="3.74148" rx="1.87074" transform="matrix(-0.707107 0.707107 0.707107 0.707107 188.267 66.1173)" fill="#7F65D1"/>
<rect width="21.7006" height="3.74148" rx="1.87074" transform="matrix(0.707107 0.707107 0.707107 -0.707107 172.922 68.7628)" fill="#7F65D1"/>
<rect width="18.4045" height="3.17318" rx="1.58659" transform="matrix(-0.707107 0.707107 0.707107 0.707107 75.7402 184.789)" fill="#7F65D1"/>
<rect width="18.4045" height="3.17318" rx="1.58659" transform="matrix(0.707107 0.707107 0.707107 -0.707107 62.7266 187.033)" fill="#7F65D1"/>
</g>
<defs>
<linearGradient id="paint0_linear_352_6177" x1="103.036" y1="-11.6354" x2="103.036" y2="455.782" gradientUnits="userSpaceOnUse">
<stop stop-color="white"/>
<stop offset="1" stop-color="#9F85F3"/>
</linearGradient>
<clipPath id="clip0_352_6177">
<rect width="217" height="217" fill="white"/>
</clipPath>
</defs>
</svg>
