<svg xmlns="http://www.w3.org/2000/svg" width="20" height="23.922" viewBox="0 0 20 23.922">
  <path id="requests" d="M1.9.272a.4.4,0,0,0-.4.4V23.791a.4.4,0,0,0,.4.4H21.1a.4.4,0,0,0,.4-.4V8.306L13.567.272ZM13.567,1.645l6.578,6.661H13.89a.322.322,0,0,1-.322-.329ZM7.679,3.23a2.935,2.935,0,0,1,2.928,2.928,2.882,2.882,0,0,1-.914,1.892,4.288,4.288,0,0,1,1.889,1.88,10.317,10.317,0,0,1,.9,3.027.413.413,0,0,1-.408.472H3.358a.413.413,0,0,1-.408-.472,10.8,10.8,0,0,1,.865-3.023A4.17,4.17,0,0,1,5.674,8.057a2.885,2.885,0,0,1-.924-1.9A2.935,2.935,0,0,1,7.679,3.23Zm0,.826a2.1,2.1,0,0,0-1.3,3.751.413.413,0,0,1-.125.714,3.184,3.184,0,0,0-1.695,1.77A9.354,9.354,0,0,0,3.9,12.6h7.624a9,9,0,0,0-.682-2.307A3.309,3.309,0,0,0,9.111,8.517.413.413,0,0,1,8.989,7.8a2.1,2.1,0,0,0-1.31-3.747Zm6.283,6.119h5.022a.576.576,0,0,1,.569.567v1.6a.579.579,0,0,1-.569.57H13.846a.577.577,0,0,1-.567-.57V10.818a.657.657,0,0,1,.214-.485A.706.706,0,0,1,13.962,10.175Zm.144.826v1.082h4.622V11ZM4.5,14.807H9.776a.576.576,0,0,1,.567.569v1.6a.574.574,0,0,1-.567.567H4.382a.574.574,0,0,1-.567-.567V15.453C3.815,15.078,4.044,14.839,4.5,14.807Zm8.023,0h6.464a.578.578,0,0,1,.569.569v1.6a.576.576,0,0,1-.569.567H12.405a.574.574,0,0,1-.567-.567V15.453C11.839,15.01,12.007,14.807,12.521,14.807Zm-7.88.826v1.082H9.517V15.633Zm8.024,0v1.082h6.064V15.633ZM4.5,18.832H9.776a.577.577,0,0,1,.567.57V21a.574.574,0,0,1-.567.567H4.382A.574.574,0,0,1,3.815,21V19.478C3.815,19.083,4.045,18.865,4.5,18.832Zm8.912,0h5.412a.577.577,0,0,1,.567.57V21a.574.574,0,0,1-.567.567H13.432A.576.576,0,0,1,12.863,21V19.478C12.863,19,13.075,18.856,13.41,18.832Zm-8.77.826v1.081H9.517V19.658Zm9.048,0v1.081h4.875V19.658Z" transform="translate(-1.502 -0.272)" fill="#0090d3"/>
</svg>
